<svg width="2015" height="2320" xmlns="http://www.w3.org/2000/svg" xmlns:xlink="http://www.w3.org/1999/xlink" xml:space="preserve" overflow="hidden"><g transform="translate(-1390 -2982)"><path d="M1390 2982 3405 2982 3405 5302 1390 5302 1390 2982Z" fill="#FFFFFF" fill-rule="evenodd"/><path d="M3156.66 4443 3272.65 4443C3286.26 4443 3299 4450.21 3299 4464.17 3297.72 4564.98 3297.29 4667.07 3298.14 4770.43 3298.14 4784.41 3292.19 4794.15 3278.17 4794.15L3151.55 4795C3137.95 4795 3132 4786.1 3132 4772.14L3132 4467.98C3132.01 4454.44 3143.07 4443 3156.66 4443L3156.66 4443Z" fill="#7686C2" fill-rule="evenodd"/><path d="M1488 3675 1467.05 3707 1467 3699.85C1467 3686.97 1476.17 3676.6 1488 3675L1488 3675Z" fill="#C9D9EF" fill-rule="evenodd"/><path d="M1467 3706.33 1488.14 3674.22C1489.21 3674.08 1490.28 3674 1491.38 3674L1510 3674.06 1467.23 3739 1467 3706.33 1467 3706.33Z" fill="#C9D9EF" fill-rule="evenodd"/><path d="M1467 3738.95 1510.39 3674 1532 3674.08 1467.24 3771 1467 3738.95Z" fill="#C7D6EE" fill-rule="evenodd"/><path d="M1467 3771.32 1531.8 3675 1554 3675.07 1467.25 3804 1467 3771.32Z" fill="#C7D6EE" fill-rule="evenodd"/><path d="M1468 3803.48 1553.76 3675 1575 3675.07 1468.25 3835 1468 3803.48Z" fill="#C7D6EE" fill-rule="evenodd"/><path d="M1468 3835.35 1575 3675 1597 3675.08 1468.25 3868 1468 3835.35Z" fill="#C4D3ED" fill-rule="evenodd"/><path d="M1468 3867.96 1597.34 3675 1619 3675.07 1468.25 3900 1468 3867.96Z" fill="#C4D3ED" fill-rule="evenodd"/><path d="M1468 3899.78 1619.14 3675 1641 3675.08 1468.25 3932 1468 3899.78Z" fill="#C2D2EC" fill-rule="evenodd"/><path d="M1469 3932.87 1640.44 3675 1662 3675.07 1469.23 3965 1469 3932.87Z" fill="#C2D1EB" fill-rule="evenodd"/><path d="M1469 3964.87 1662.38 3675 1684 3675.07 1469.25 3997 1469 3964.87Z" fill="#C2D1EB" fill-rule="evenodd"/><path d="M1469 3996.69 1684.19 3675 1706 3675.08 1469.25 4029 1469 3996.69Z" fill="#BFCEEA" fill-rule="evenodd"/><path d="M1469 4028.9 1706.27 3675 1728 3675.07 1469.24 4061 1469 4028.9Z" fill="#BFCEEA" fill-rule="evenodd"/><path d="M1470 4061.26 1727.95 3675 1750 3675.07 1470.25 4094 1470 4061.26Z" fill="#BDCDEA" fill-rule="evenodd"/><path d="M1470 4093.33 1749.62 3675 1771 3675.08 1470.25 4125 1470 4093.33Z" fill="#BDCDEA" fill-rule="evenodd"/><path d="M1470 4125.27 1770.93 3675 1793 3675.07 1470.25 4158 1470 4125.27Z" fill="#BDCCE9" fill-rule="evenodd"/><path d="M1470 4158.02 1792.53 3675 1814 3675.08 1470.25 4190 1470 4158.02Z" fill="#BDCCE9" fill-rule="evenodd"/><path d="M1471 4190.5 1814.09 3675 1836 3675.07 1471.25 4223 1471 4190.5Z" fill="#BBC9E7" fill-rule="evenodd"/><path d="M1471 4222.91 1836.37 3676 1858 3676.07 1471.24 4255 1471 4222.91Z" fill="#BBC9E7" fill-rule="evenodd"/><path d="M1471 4254.44 1858.1 3676 1880 3676.08 1471.25 4287 1471 4254.44Z" fill="#BBC9E7" fill-rule="evenodd"/><path d="M1471 4287.23 1880.43 3676 1902 3676.07 1471.25 4319 1471 4287.23Z" fill="#B8C6E6" fill-rule="evenodd"/><path d="M1472 4319.28 1901.92 3676 1924 3676.07 1472.25 4352 1472 4319.28Z" fill="#B8C6E6" fill-rule="evenodd"/><path d="M1472 4351.35 1923.64 3676 1945 3676.08 1472.24 4383 1472 4351.35Z" fill="#B6C6E6" fill-rule="evenodd"/><path d="M1472 4383.29 1944.92 3676 1967 3676.07 1472.25 4416 1472 4383.29Z" fill="#B6C6E6" fill-rule="evenodd"/><path d="M1472 4415.91 1967.33 3676 1989 3676.08 1472.25 4448 1472 4415.91Z" fill="#B6C4E5" fill-rule="evenodd"/><path d="M1473 4448.18 1988.39 3676 2010 3676.06 1473.25 4480 1473 4448.18Z" fill="#B3C3E5" fill-rule="evenodd"/><path d="M1473 4480.41 2010.23 3676 2032 3676.08 1473.25 4513 1473 4480.41Z" fill="#B3C2E3" fill-rule="evenodd"/><path d="M1473 4512.89 2032.34 3676 2054 3676.08 1473.25 4545 1473 4512.89Z" fill="#B1C1E3" fill-rule="evenodd"/><path d="M1473 4544.69 2054.19 3676 2076 3676.07 1473.24 4577 1473 4544.69Z" fill="#B1C1E3" fill-rule="evenodd"/><path d="M1473 4576.9 2075.34 3676 2097 3676.07 1473.25 4609 1473 4576.9Z" fill="#B1BFE2" fill-rule="evenodd"/><path d="M1474 4609.26 2096.94 3676 2119 3676.07 1474.25 4642 1474 4609.26Z" fill="#B1BFE2" fill-rule="evenodd"/><path d="M1474 4641.37 2119.62 3677 2141 3677.08 1474.24 4673 1474 4641.37Z" fill="#AEBEE2" fill-rule="evenodd"/><path d="M1474 4673.29 2140.92 3677 2163 3677.07 1474.25 4706 1474 4673.29Z" fill="#AFBDE1" fill-rule="evenodd"/><path d="M1474 4705.99 2162.54 3677 2184 3677.07 1474.25 4738 1474 4705.99Z" fill="#ACBCE1" fill-rule="evenodd"/><path d="M1475 4738.62 2184.02 3677 2206 3677.08 1475.25 4771 1475 4738.62Z" fill="#ACBCE1" fill-rule="evenodd"/><path d="M1475 4770.92 2206.35 3677 2228 3677.08 1475.24 4803 1475 4770.92Z" fill="#ACBAE0" fill-rule="evenodd"/><path d="M1475 4802.7 2228.17 3677 2235.53 3677.01 2250 3677.04 1475.26 4835 1475 4802.7Z" fill="#AABADF" fill-rule="evenodd"/><path d="M1475 4834.91 2249.32 3677 2271 3677.03 1475.24 4867 1475 4834.91Z" fill="#AAB8DE" fill-rule="evenodd"/><path d="M1476 4867.28 2270.93 3677 2293 3677.04 1476.25 4900 1476 4867.28Z" fill="#A7B7DE" fill-rule="evenodd"/><path d="M1476 4899.33 2293.6 3677 2315 3677.03 1476.25 4931 1476 4899.33Z" fill="#A7B7DE" fill-rule="evenodd"/><path d="M1476 4931.28 2314.9 3677 2337 3677.04 1476.24 4964 1476 4931.28Z" fill="#A7B7DE" fill-rule="evenodd"/><path d="M1476 4963.91 2337.3 3677 2359 3677.04 1476.26 4996 1476 4963.91Z" fill="#A5B5DD" fill-rule="evenodd"/><path d="M1477 4996.32 2358.3 3677 2380 3677.03 1477.24 5028 1477 4996.32Z" fill="#A5B5DD" fill-rule="evenodd"/><path d="M1477 5027.77 2380.23 3677 2402 3677.03 1484.93 5049C1480.19 5044.26 1477.04 5038.21 1477.04 5031.95L1477 5027.77 1477 5027.77Z" fill="#A3B2DC" fill-rule="evenodd"/><path d="M1485 5049.25 2402.32 3677 2424 3677.03 1500.85 5058C1495.05 5056.82 1489.36 5053.61 1485 5049.25L1485 5049.25Z" fill="#A3B2DC" fill-rule="evenodd"/><path d="M1501 5057.49 2424.18 3677 2446 3677.03 1522.49 5058 1505.76 5057.99C1504.19 5057.99 1502.58 5057.79 1501 5057.49L1501 5057.49Z" fill="#A3B2DC" fill-rule="evenodd"/><path d="M1522 5057.96 2445.33 3677 2467 3677.04 1543.68 5058 1522 5057.96Z" fill="#A3B1DA" fill-rule="evenodd"/><path d="M1544 5058.96 2466.9 3677 2489 3677.03 1566.1 5059 1544 5058.96Z" fill="#A1B0DA" fill-rule="evenodd"/><path d="M1566 5058.97 2489.61 3677 2511 3677.04 1587.39 5059 1566 5058.97Z" fill="#A1B0DA" fill-rule="evenodd"/><path d="M1587 5058.96 2510.88 3677 2533 3677.03 1609.12 5059 1587 5058.96Z" fill="#A1B0DA" fill-rule="evenodd"/><path d="M1609 5058.96 2532.54 3677 2554 3677.04 1630.67 5059 1609 5058.96Z" fill="#9EAED9" fill-rule="evenodd"/><path d="M1631 5058.97 2553.98 3677 2576 3677.03 1652.82 5059 1631 5058.97Z" fill="#9EAED9" fill-rule="evenodd"/><path d="M1653 5058.96 2576.31 3677 2598 3677.04 1674.66 5059 1653 5058.96Z" fill="#9CABD8" fill-rule="evenodd"/><path d="M1675 5058.96 2598.19 3678 2620 3678.04 1696.82 5059 1675 5058.96Z" fill="#9CABD8" fill-rule="evenodd"/><path d="M1696 5058.99 2620.29 3678 2642 3678.03 1717.7 5059 1696 5058.99Z" fill="#9CABD8" fill-rule="evenodd"/><path d="M1718 5058.96 2641.9 3678 2664 3678.03 1740.11 5059 1718 5058.96Z" fill="#9CABD8" fill-rule="evenodd"/><path d="M1740 5058.96 2663.6 3678 2685 3678.04 1761.4 5059 1740 5058.96Z" fill="#9AABD8" fill-rule="evenodd"/><path d="M1762 5058.97 2684.92 3678 2707 3678.03 1784.08 5059 1762 5058.97Z" fill="#9AA9D6" fill-rule="evenodd"/><path d="M1784 5058.96 2707.33 3678 2729 3678.04 1805.68 5059 1784 5058.96Z" fill="#9AA9D6" fill-rule="evenodd"/><path d="M1805 5058.96 2729.23 3678 2751 3678.03 1826.46 5059 1805 5058.96Z" fill="#9AA9D6" fill-rule="evenodd"/><path d="M1827 5058.96 2750.26 3678 2772 3678.04 1849.05 5059 1827 5058.96Z" fill="#98A7D5" fill-rule="evenodd"/><path d="M1849 5058.97 2772.32 3678 2794 3678.04 1870.66 5059 1849 5058.97Z" fill="#98A7D5" fill-rule="evenodd"/><path d="M1871 5058.96 2794.18 3678 2816 3678.03 1892.81 5059 1871 5058.96Z" fill="#98A7D5" fill-rule="evenodd"/><path d="M1892 5058.97 2816.32 3678 2838 3678.03 1913.71 5059 1892 5058.97Z" fill="#98A7D5" fill-rule="evenodd"/><path d="M1914 5058.96 2837.88 3678 2860 3678.04 1936.1 5059 1914 5058.96Z" fill="#96A6D5" fill-rule="evenodd"/><path d="M1936 5058.96 2859.6 3678 2881 3678.03 1957.39 5059 1936 5058.96Z" fill="#96A5D4" fill-rule="evenodd"/><path d="M1958 5058.97 2880.91 3678 2903 3678.04 1980.1 5059 1958 5058.97Z" fill="#96A5D4" fill-rule="evenodd"/><path d="M1980 5058.96 2903.58 3678 2925 3678.03 2001.64 5059 1980 5058.96Z" fill="#93A4D4" fill-rule="evenodd"/><path d="M2001 5058.96 2924.9 3678 2947 3678.04 2022.87 5059 2001 5058.96Z" fill="#94A3D3" fill-rule="evenodd"/><path d="M2023 5058.97 2946.33 3678 2968 3678.04 2044.67 5059 2023 5058.97Z" fill="#94A3D3" fill-rule="evenodd"/><path d="M2045 5058.97 2968.2 3678 2990 3678.03 2066.81 5059 2045 5058.97Z" fill="#94A3D3" fill-rule="evenodd"/><path d="M2067 5058.96 2990.31 3678 3012 3678.03 2088.67 5059 2067 5058.96Z" fill="#94A3D3" fill-rule="evenodd"/><path d="M2088 5058.97 3011.9 3678 3034 3678.04 2110.12 5059 2088 5058.97Z" fill="#91A2D3" fill-rule="evenodd"/><path d="M2110 5058.96 3033.6 3678 3055 3678.03 2131.4 5059 2110 5058.96Z" fill="#92A0D1" fill-rule="evenodd"/><path d="M2132 5058.97 3054.91 3678 3077 3678.04 2154.08 5059 2132 5058.97Z" fill="#92A0D1" fill-rule="evenodd"/><path d="M2154 5059.96 3077.33 3678 3099 3678.03 2175.67 5060 2154 5059.96Z" fill="#8FA0D1" fill-rule="evenodd"/><path d="M2176 5059.96 3099.22 3678 3121 3678.04 2197.46 5060 2176 5059.96Z" fill="#8FA0D1" fill-rule="evenodd"/><path d="M2197 5059.96 3121.28 3678 3143 3678.04 2219.04 5060 2197 5059.96Z" fill="#909ED0" fill-rule="evenodd"/><path d="M2219 5059.97 3142.33 3678 3164 3678.03 2240.67 5060 2219 5059.97Z" fill="#909ED0" fill-rule="evenodd"/><path d="M2241 5059.96 3164.19 3678 3186 3678.03 2262.81 5060 2241 5059.96Z" fill="#909ED0" fill-rule="evenodd"/><path d="M2263 5059.96 3186.33 3678 3208 3678.03 2284.67 5060 2263 5059.96Z" fill="#8D9ED0" fill-rule="evenodd"/><path d="M2284 5059.97 3207.88 3678 3230 3678.04 2306.1 5060 2284 5059.97Z" fill="#8D9ED0" fill-rule="evenodd"/><path d="M2306 5059.96 3229.61 3679 3251 3679.04 2327.4 5060 2306 5059.96Z" fill="#8E9CCF" fill-rule="evenodd"/><path d="M2328 5059.97 3250.91 3679 3273 3679.04 2350.09 5060 2328 5059.97Z" fill="#8E9CCF" fill-rule="evenodd"/><path d="M2350 5059.96 3273.6 3679 3295 3679.03 2371.61 5060 2350 5059.96Z" fill="#8E9CCF" fill-rule="evenodd"/><path d="M2372 5059.96 3294.76 3679 3299.01 3679.01C3303.55 3679.01 3308.48 3681.28 3313 3684.8L2393.87 5060 2372 5059.96 2372 5059.96Z" fill="#8C9ACE" fill-rule="evenodd"/><path d="M2393 5059.97 3312.76 3684C3317.57 3687.72 3321.93 3692.84 3325 3698.18L2414.68 5060 2393 5059.97 2393 5059.97Z" fill="#8C9ACE" fill-rule="evenodd"/><path d="M2415 5059.94 3325.6 3699C3328.32 3703.78 3330 3708.7 3330 3712.97L3329.9 3725.18 2436.83 5060 2415 5059.94 2415 5059.94Z" fill="#8C9ACE" fill-rule="evenodd"/><path d="M2437 5059.97 3330 3725 3329.78 3757.81 2458.69 5060 2437 5059.97Z" fill="#8999CE" fill-rule="evenodd"/><path d="M2459 5059.96 3329 3758 3328.76 3791.43 2481.07 5060 2459 5059.96Z" fill="#8999CE" fill-rule="evenodd"/><path d="M2481 5059.97 3329 3791 3328.76 3823.38 2502.39 5060 2481 5059.97Z" fill="#8998CC" fill-rule="evenodd"/><path d="M2502 5059.96 3329 3823 3328.76 3856.46 2524.11 5060 2502 5059.96Z" fill="#8998CC" fill-rule="evenodd"/><path d="M2524 5059.96 3329 3857 3328.78 3889.79 2545.68 5060 2524 5059.96Z" fill="#8998CC" fill-rule="evenodd"/><path d="M2546 5059.97 3328 3890 3327.76 3922.94 2567.5 5060 2546 5059.97Z" fill="#8797CC" fill-rule="evenodd"/><path d="M2567 5059.96 3328 3923 3327.76 3955.85 2588.99 5060 2567 5059.96Z" fill="#8797CC" fill-rule="evenodd"/><path d="M2589 5059.96 3328 3956 3327.76 3988.76 2610.69 5060 2589 5059.96Z" fill="#8896CB" fill-rule="evenodd"/><path d="M2611 5059.97 3328 3988 3327.78 4021.02 2632.83 5060 2611 5059.97Z" fill="#8595CB" fill-rule="evenodd"/><path d="M2633 5059.96 3328 4021 3327.76 4053.81 2654.7 5060 2633 5059.96Z" fill="#8595CB" fill-rule="evenodd"/><path d="M2655 5059.96 3327 4054 3326.76 4087.09 2676.97 5060 2655 5059.96Z" fill="#8694CA" fill-rule="evenodd"/><path d="M2677 5059.97 3327 4087 3326.78 4119.73 2698.47 5060 2677 5059.97Z" fill="#8694CA" fill-rule="evenodd"/><path d="M2698 5059.96 3327 4120 3326.75 4153.44 2720.12 5060 2698 5059.96Z" fill="#8393CA" fill-rule="evenodd"/><path d="M2720 5059.96 3327 4153 3326.78 4185.45 2741.61 5060 2720 5059.96Z" fill="#8393CA" fill-rule="evenodd"/><path d="M2742 5060.97 3326 4186 3325.76 4219.37 2763.88 5061 2742 5060.97Z" fill="#8393CA" fill-rule="evenodd"/><path d="M2764 5060.97 3326 4219 3325.76 4251.84 2785.66 5061 2764 5060.97Z" fill="#8492C9" fill-rule="evenodd"/><path d="M2785 5060.96 3326 4252 3325.78 4285.04 2806.85 5061 2785 5060.96Z" fill="#8191C9" fill-rule="evenodd"/><path d="M2807 5060.97 3326 4285 3325.76 4317.82 2828.68 5061 2807 5060.97Z" fill="#8191C9" fill-rule="evenodd"/><path d="M2829 5060.96 3325 4318 3324.76 4351.45 2851.08 5061 2829 5060.96Z" fill="#8290C8" fill-rule="evenodd"/><path d="M2851 5060.96 3325 4351 3324.76 4383.4 2872.37 5061 2851 5060.96Z" fill="#8290C8" fill-rule="evenodd"/><path d="M2872 5060.97 3325 4384 3324.76 4417.44 2894.13 5061 2872 5060.97Z" fill="#7F8FC8" fill-rule="evenodd"/><path d="M2894 5060.96 3325 4417 3324.78 4449.85 2915.71 5061 2894 5060.96Z" fill="#7F8FC8" fill-rule="evenodd"/><path d="M2916 5060.97 3324 4450 3323.76 4482.38 2937.38 5061 2916 5060.97Z" fill="#7F8FC8" fill-rule="evenodd"/><path d="M2937 5060.96 3324 4482 3323.76 4515.47 2959.09 5061 2937 5060.96Z" fill="#7E8DC7" fill-rule="evenodd"/><path d="M2960 5060.96 3324 4516 3323.76 4548.79 2981.67 5061 2960 5060.96Z" fill="#7E8DC7" fill-rule="evenodd"/><path d="M2981 5060.96 3324 4549 3323.76 4582 3002.85 5061 2981 5060.96Z" fill="#7E8DC7" fill-rule="evenodd"/><path d="M3003 5060.97 3324 4582 3323.78 4614.78 3024.71 5061 3003 5060.97Z" fill="#7E8DC7" fill-rule="evenodd"/><path d="M3025 5060.96 3323 4614 3322.76 4647.21 3046.94 5061 3025 5060.96Z" fill="#7E8CC6" fill-rule="evenodd"/><path d="M3047 5060.97 3323 4648 3322.78 4680.63 3068.5 5061 3047 5060.97Z" fill="#7C8BC5" fill-rule="evenodd"/><path d="M3068 5060.96 3323 4680 3322.75 4713.46 3090.12 5061 3068 5060.96Z" fill="#7C8BC5" fill-rule="evenodd"/><path d="M3090 5060.97 3323 4714 3322.76 4746.51 3111.64 5061 3090 5060.97Z" fill="#7C8BC5" fill-rule="evenodd"/><path d="M3112 5060.96 3322 4746 3321.78 4779.28 3133.88 5061 3112 5060.96Z" fill="#798BC5" fill-rule="evenodd"/><path d="M3134 5060.97 3322 4779 3321.76 4811.84 3155.66 5061 3134 5060.97Z" fill="#7A89C4" fill-rule="evenodd"/><path d="M3156 5060.96 3322 4812 3321.78 4845.04 3177.77 5061 3156 5060.96Z" fill="#7A89C4" fill-rule="evenodd"/><path d="M3177 5060.96 3322 4845 3321.75 4877.83 3198.78 5061 3177 5060.96Z" fill="#7A89C4" fill-rule="evenodd"/><path d="M3199 5060.97 3321 4878 3320.76 4911.42 3221.02 5061 3199 5060.97Z" fill="#7A88C3" fill-rule="evenodd"/><path d="M3221 5060.96 3321 4912 3320.78 4944.21 3242.37 5061 3221 5060.96Z" fill="#7888C3" fill-rule="evenodd"/><path d="M3243 5060.96 3321 4944 3320.77 4977.02 3264.75 5061 3243 5060.96Z" fill="#7888C3" fill-rule="evenodd"/><path d="M3264 5060.97 3321 4977 3320.78 5009.99 3286.15 5061 3264 5060.97Z" fill="#7888C3" fill-rule="evenodd"/><path d="M3286 5061 3321 5010 3320.8 5036.5C3320.8 5039.1 3320.38 5041.59 3319.61 5043.93L3311.9 5055.17C3307.48 5058.81 3301.79 5061 3295.57 5061L3286 5061 3286 5061Z" fill="#7888C3" fill-rule="evenodd"/><path d="M3312 5056 3319 5044C3317.67 5048.72 3315.22 5052.86 3312 5056L3312 5056Z" fill="#7886C2" fill-rule="evenodd"/><path d="M1491.67 3674 2235.51 3676.54 3299.36 3678.25C3312.97 3678.25 3330 3698.61 3330 3712.19L3320.64 5036.41C3320.64 5049.99 3309.57 5061 3295.96 5061L1505.72 5058.04C1492.11 5058.04 1477.21 5045.31 1477.21 5031.73L1467 3699.02C1466.99 3685.03 1478.05 3674 1491.67 3674L1491.67 3674Z" stroke="#000000" stroke-width="5.88291" stroke-miterlimit="8" fill="none" fill-rule="evenodd"/><path d="M1522.04 3695.61 3288.81 3685C3307.54 3685 3322 3706.63 3322 3725.3L3307.95 5008.74C3307.95 5034.19 3292.23 5046.92 3266.7 5046.92L1523.3 5052C1504.59 5052 1489.28 5036.73 1489.28 5018.07L1488 3729.55C1488.01 3710.88 1503.32 3695.61 1522.04 3695.61L1522.04 3695.61Z" fill="#8CA4D5" fill-rule="evenodd"/><path d="M3215.21 3871.94C3270.87 3863.46 3304 3914.33 3304 3953.74 3304.43 3995.68 3269.59 4027.05 3236.45 4031.29 3188.43 4037.66 3149.36 3999.93 3154.45 3962.21 3158.26 3934.65 3187.57 3876.6 3215.21 3871.94L3215.21 3871.94Z" fill="#7686C2" fill-rule="evenodd"/><path d="M1596.27 3778 3088.28 3779.28C3100.2 3779.28 3107 3786.92 3107 3798.79L3101.04 4940.59C3101.04 4952.46 3095.09 4973.7 3076.37 4969.45L1596.29 4957.99C1584.37 4957.57 1575 4948.23 1575 4936.34L1575 3799.64C1574.99 3787.76 1584.36 3778 1596.27 3778L1596.27 3778Z" fill="#7686C2" fill-rule="evenodd"/><path d="M2582.15 3673.39C2577.04 3629.27 2547.71 3596.16 2508.14 3576.22 2482.61 3563.49 2452.85 3555.86 2422.64 3554.59 2392.44 3552.88 2361.38 3557.13 2334.17 3567.74 2289.08 3585.14 2252.92 3619.49 2240.59 3672.96L2582.15 3673.39 2582.15 3673.39ZM2845.44 3047.57C2867.13 3048.85 2883.71 3066.67 2882.43 3087.45 2881.15 3108.24 2862.87 3124.37 2841.17 3123.52 2840.31 3123.1 2839.47 3123.1 2838.62 3123.1L2834.79 3128.19 2830.97 3157.04 2830.97 3157.9 2830.55 3158.32 2830.55 3158.32 2830.55 3158.32C2827.99 3161.29 2825.45 3164.68 2822.89 3168.08 2816.92 3176.57 2810.55 3185.05 2805.87 3186.33L2742.5 3205.42C2742.07 3205.84 2739.52 3208.4 2735.7 3212.63 2731.02 3217.73 2725.05 3224.51 2717.83 3232.57 2681.25 3274.15 2618.3 3349.25 2616.17 3365.38L2616.17 3365.38C2615.31 3370.89 2615.76 3392.96 2616.17 3416.72 2616.17 3447.27 2616.59 3480.36 2614.47 3483.75L2546.42 3594.91C2569.82 3615.7 2585.55 3642.87 2588.52 3675.96L2588.52 3678.5 2585.55 3678.5 2236.76 3678.07 2232.93 3678.07 2234.21 3675.1C2241.44 3639.05 2259.31 3611.04 2283.55 3590.66L2263.56 3569.88C2263.56 3569.88 2254.63 3569.45 2246.55 3569.45 2245.27 3569.45 2243.57 3569.45 2241.87 3569.45L2237.62 3569.45 2237.62 3569.45C2226.13 3570.29 2209.55 3569.45 2192.97 3568.58 2184.46 3568.58 2176.39 3568.17 2168.71 3567.74 2167.01 3567.74 2149.14 3579.61 2131.7 3591.07 2123.19 3596.58 2114.68 3602.09 2107.88 3606.76L2106.18 3607.62 2106.18 3607.62C2102.36 3610.16 2095.97 3611.02 2090.02 3610.58 2089.16 3610.16 2087.88 3610.16 2086.62 3610.16 2085.34 3609.73 2084.48 3609.73 2083.21 3609.31 2082.78 3609.31 2081.94 3608.88 2081.09 3608.88 2062.81 3602.52 2044.94 3594.89 2027.06 3587.67 2018.55 3583.86 2009.63 3580.03 2000.27 3576.64L2000.27 3576.64 2000.27 3576.64 2000.27 3576.64C1997.71 3575.36 1971.77 3540.57 1945.39 3506.2 1922 3474.81 1898.18 3443.42 1893.07 3437.89L1872.23 3437.48 1814.8 3473.96C1812.25 3495.59 1793.54 3511.3 1771.84 3510.02 1749.3 3509.18 1732.29 3489.65 1733.57 3467.6 1734.84 3445.11 1753.97 3427.71 1776.52 3428.99 1797.36 3430.27 1813.53 3446.81 1814.8 3467.18L1870.1 3431.96 1870.53 3431.55 1871.8 3431.55 1894.35 3431.96C1895.63 3432.39 1896.47 3432.81 1897.32 3433.67L1897.32 3433.67C1902.43 3439.18 1926.25 3470.58 1950.06 3502.41 1976 3536.35 2001.53 3570.72 2002.38 3571.14L2002.38 3571.14 2002.38 3571.14 2002.38 3571.14C2011.32 3574.54 2020.25 3578.36 2029.19 3582.17 2047.05 3589.8 2064.92 3597.01 2083.21 3603.39 2083.64 3603.39 2084.06 3603.39 2084.92 3603.8 2085.77 3603.8 2086.63 3604.22 2087.48 3604.22 2088.75 3604.22 2089.6 3604.65 2090.45 3604.65 2095.12 3605.08 2100.23 3604.65 2102.79 3602.95L2102.79 3602.95 2104.91 3601.69C2111.71 3597.44 2119.79 3591.93 2128.32 3586.42 2147.03 3574.11 2165.31 3561.81 2168.73 3561.81 2176.39 3562.22 2184.9 3562.65 2192.98 3563.07 2209.57 3563.5 2225.73 3564.35 2237.22 3563.5L2237.65 3563.5 2237.65 3563.5 2237.65 3563.5 2241.9 3563.5 2241.9 3563.5C2243.18 3563.5 2244.87 3563.5 2246.58 3563.5 2255.93 3563.93 2266.57 3564.35 2267.85 3565.63L2288.27 3586.83C2301.45 3576.65 2315.92 3568.58 2332.08 3562.22 2360.15 3551.2 2392.03 3546.95 2423.1 3548.64 2454.16 3550.35 2484.36 3557.97 2510.74 3571.13 2522.22 3576.64 2532.44 3583.44 2541.78 3591.07L2609.83 3480.33C2610.69 3478.64 2610.26 3446.39 2610.26 3416.69 2609.83 3392.93 2609.83 3370.44 2610.26 3364.5L2610.26 3364.5 2610.26 3364.5 2610.26 3364.5C2612.38 3347.1 2676.6 3270.74 2713.61 3228.73 2720.84 3220.66 2726.8 3213.45 2731.48 3208.79 2736.16 3203.69 2739.14 3200.3 2739.97 3199.87L2739.97 3199.87 2739.97 3199.87 2739.97 3199.87 2740.4 3199.87 2804.64 3180.77C2807.19 3179.93 2812.72 3172.29 2818.24 3164.65 2820.79 3161.25 2823.33 3157.86 2825.47 3155.32L2828.87 3126.46 2829.3 3125.62 2829.72 3125.19 2832.28 3121.8C2815.26 3116.7 2803.36 3101.01 2804.22 3083.18 2805.44 3062.43 2823.74 3046.29 2845.44 3047.57L2845.44 3047.57Z" stroke="#000000" stroke-width="1.27323" stroke-miterlimit="8" fill-rule="evenodd"/><path d="M1596.29 3778 3070.28 3779.28C3082.18 3779.28 3089 3786.92 3089 3798.38L3083.04 4926.67C3083.04 4938.13 3078.78 4953.42 3067.29 4952.99L1596.29 4943.66C1584.37 4943.66 1575 4933.91 1575 4922.45L1575 3799.22C1575 3787.76 1584.37 3778 1596.29 3778L1596.29 3778Z" fill="#4E8ABE" fill-rule="evenodd"/><path d="M1596.29 3778 3070.28 3779.28C3082.18 3779.28 3089 3786.92 3089 3798.38L3058.36 4910.89C3057.95 4927.01 3042.2 4937.22 3026.03 4937.64L1596.29 4944C1584.37 4944 1575 4934.25 1575 4922.79L1575 3799.23C1575 3787.77 1584.37 3778 1596.29 3778L1596.29 3778Z" fill="#5261AC" fill-rule="evenodd"/><path d="M2958.81 4852.75 3049 4924M1623.64 3821.71 1712.56 3897.2M1699.37 4839.17 1613 4910.42M3035.82 3820 2940.51 3899.31" stroke="#000000" stroke-width="5.88291" stroke-linecap="round" stroke-linejoin="round" stroke-miterlimit="10" fill="none" fill-rule="evenodd"/><path d="M1809.72 3911.87C2005.81 3835.09 2551.55 3855.03 2758.7 3860.11 2965.85 3874.1 3000.74 4141.36 3004.55 4370.87 3009.66 4686.49 2973.51 4810.8 2760.82 4851.09 2514.95 4897.33 2092.15 4873.16 1813.95 4827.75 1659.12 4802.72 1617.43 4552.43 1617 4312.75 1616.18 3986.96 1742.94 3938.17 1809.72 3911.87L1809.72 3911.87Z" stroke="#000000" stroke-width="5.88291" stroke-miterlimit="8" fill="#FFFFFF" fill-rule="evenodd"/><path d="M2585 3676C2571.41 3522.15 2273.12 3497.14 2237 3675.58L2585 3676 2585 3676Z" stroke="#000000" stroke-width="5.88291" stroke-miterlimit="8" fill="#BCBEC0" fill-rule="evenodd"/><path d="M2582 3673C2563.71 3534.66 2316.88 3505.38 2279 3673L2582 3673 2582 3673Z" fill="#939598" fill-rule="evenodd"/><path d="M1596.25 3775 3070.29 3776.28C3074.97 3776.28 3078.79 3777.13 3081.78 3778.82 3083.06 3779.67 3083.9 3780.51 3085.18 3781.36 3086.04 3782.22 3086.88 3783.07 3087.74 3784.33L3087.74 3784.33C3090.29 3788.15 3092 3792.82 3092 3798.34L3086.04 4926.72C3086.04 4927.58 3086.04 4928.01 3085.61 4928.85 3085.61 4934.36 3084.33 4940.72 3082.21 4945.39 3079.65 4950.9 3075.4 4955.15 3069.45 4956 3068.58 4956 3068.17 4956 3067.32 4956L1596.26 4946.67C1595.4 4946.67 1594.98 4946.67 1594.12 4946.67 1592.42 4946.25 1590.72 4945.82 1589.01 4945.39 1587.3 4944.97 1585.61 4944.12 1584.33 4943.26L1584.33 4943.26C1576.67 4939.46 1572 4931.4 1572 4922.48L1572 3799.17C1572 3794.92 1573.26 3790.68 1574.97 3787.29 1575.83 3785.58 1576.68 3784.75 1577.96 3783.47 1578.81 3782.19 1580.08 3781.35 1581.36 3780.5 1585.18 3777.13 1590.28 3775 1596.25 3775L1596.25 3775ZM3070.29 3781.79 1596.25 3780.94C1591.98 3780.94 1587.73 3782.64 1584.75 3784.76 1583.89 3785.61 1583.04 3786.46 1582.19 3787.31 1581.35 3788.15 1580.92 3789 1580.07 3790.28 1578.79 3792.83 1577.94 3795.79 1577.94 3799.18L1577.94 4922.5C1577.94 4929.29 1581.35 4935.23 1587.3 4938.19L1587.3 4938.19C1588.17 4939.05 1589.43 4939.47 1590.71 4939.9 1591.98 4940.32 1593.26 4940.75 1594.54 4940.75L1594.54 4940.75C1595.39 4940.75 1595.82 4940.75 1596.25 4940.75L3067.31 4950.08C3067.72 4950.08 3068.17 4950.08 3068.58 4950.08 3072.42 4949.67 3074.97 4946.69 3076.67 4942.87 3078.79 4938.62 3079.65 4933.53 3080.07 4928.44 3080.07 4928.03 3080.07 4927.16 3080.07 4926.73L3086.04 3798.35C3086.04 3794.1 3084.75 3790.28 3083.06 3787.74 3082.64 3786.88 3081.78 3786.46 3081.35 3785.61 3080.49 3785.18 3079.65 3784.35 3078.79 3783.92 3076.67 3782.64 3073.7 3781.79 3070.29 3781.79L3070.29 3781.79Z" fill-rule="evenodd"/><path d="M3190.34 3860.25C3251.07 3850.55 3290 3899.12 3290 3941.75 3290.41 3987.36 3259.2 4009.74 3222.84 4014.38 3170.24 4021.14 3131.31 3971.31 3136.46 3930.35 3140.73 3899.94 3159.54 3864.9 3190.34 3860.25L3190.34 3860.25Z" fill="#4E8ABE" fill-rule="evenodd"/><path d="M3208.39 3865C3263.92 3856.11 3290 3908.56 3290 3947.47 3290.41 3989.35 3261.81 4010.06 3228.9 4014.3 3180.62 4020.64 3141.33 3983 3146.45 3945.36 3149.88 3917.44 3180.2 3869.22 3208.39 3865L3208.39 3865Z" fill="#5261AC" fill-rule="evenodd"/><path d="M3189.95 3857.27C3195.48 3856.43 3200.59 3856 3205.29 3856 3229.98 3856 3249.98 3864.87 3264.89 3878.8 3279.79 3892.73 3289.15 3911.31 3292.14 3929.89 3292.56 3933.69 3293 3937.49 3293 3941.7 3293 3942.54 3293 3942.97 3293 3943.82 3293 3950.14 3292.14 3956.49 3290.86 3961.96 3289.58 3967.45 3287.89 3972.52 3285.34 3977.16 3273.85 4001.23 3250 4013.89 3223.61 4016.85L3223.61 4016.85C3221.49 4017.26 3218.93 4017.69 3216.81 4017.69 3216.39 4018.1 3215.53 4018.1 3214.68 4017.69 3210.86 4017.69 3207.44 4017.69 3204.02 4017.26 3185.29 4014.73 3168.69 4005.45 3156.78 3992.36 3144.86 3979.69 3136.78 3963.23 3134.64 3947.19 3133.79 3941.27 3133.79 3935.37 3134.64 3929.87L3134.64 3929.45C3135.07 3925.23 3135.93 3921 3137.21 3916.36 3138.05 3912.14 3139.76 3907.5 3141.47 3903.27 3150.36 3880.9 3167.4 3860.64 3189.95 3857.27L3189.95 3857.27ZM3222.31 3863.17C3221.89 3873.73 3221.03 3882.59 3220.18 3890.61 3218.9 3899.49 3217.19 3907.07 3214.65 3915.1 3214.23 3916.79 3212.53 3917.63 3210.83 3917.22 3209.55 3916.79 3208.27 3915.1 3209.12 3913.42 3211.25 3905.82 3212.96 3898.22 3214.23 3889.77 3215.51 3881.74 3215.93 3872.89 3216.36 3862.33 3212.96 3861.9 3209.12 3861.9 3205.29 3861.9 3200.59 3861.9 3195.92 3862.33 3191.24 3862.74 3170.37 3866.13 3155.05 3884.7 3146.95 3905.39 3145.25 3909.62 3143.97 3913.83 3142.69 3918.06 3141.42 3922.27 3140.99 3926.5 3140.12 3930.3L3140.12 3930.3C3139.71 3935.79 3139.71 3940.86 3140.12 3946.34 3142.25 3961.55 3149.92 3976.75 3160.99 3988.56 3167.38 3995.32 3174.61 4000.82 3183.13 4005.03 3184.83 3991.95 3186.96 3980.97 3189.52 3971.26 3192.07 3960.7 3195.05 3951.42 3198.02 3942.97 3198.45 3941.29 3200.15 3940.43 3201.86 3940.86 3203.55 3941.7 3204.41 3943.39 3203.55 3944.66 3200.99 3953.1 3198.02 3962.39 3195.46 3972.53 3192.91 3982.67 3190.36 3994.06 3188.66 4007.15 3193.77 4009.26 3198.87 4010.52 3204.41 4011.36 3207.82 4011.79 3210.8 4011.79 3214.21 4011.79 3226.11 3994.9 3234.65 3976.33 3240.18 3954.79 3246.14 3932.4 3249.54 3906.66 3250.39 3875 3242.31 3869.5 3232.95 3865.29 3222.31 3863.17L3222.31 3863.17ZM3256.36 3879.23C3255.08 3909.63 3251.68 3934.53 3246.15 3956.49 3240.62 3977.17 3232.53 3994.9 3221.46 4011.37 3221.89 4011.37 3222.75 4011.37 3223.17 4011.37L3223.17 4011.37C3247.43 4008.42 3269.57 3996.6 3280.2 3974.64 3282.33 3970.42 3284.04 3965.77 3285.32 3960.72 3286.18 3955.23 3287.01 3949.74 3287.01 3943.83 3287.01 3942.99 3287.01 3942.13 3287.01 3941.72 3287.01 3937.92 3287.01 3934.12 3286.16 3930.74 3283.59 3913.44 3274.66 3896.13 3260.61 3883.04 3259.35 3881.76 3257.64 3880.47 3256.36 3879.23L3256.36 3879.23ZM3206.13 3923.13C3206.98 3921.86 3208.26 3921.02 3209.96 3921.43 3211.66 3921.86 3212.51 3923.54 3212.08 3925.23 3211.22 3926.92 3210.37 3927.76 3209.52 3929.03 3209.09 3929.45 3208.66 3929.87 3208.66 3930.72 3207.8 3932.4 3206.11 3933.24 3204.83 3932.83 3203.13 3931.99 3202.27 3930.72 3202.72 3929.03 3203.56 3927.34 3204.41 3926.07 3205.27 3925.23 3205.69 3924.82 3206.13 3923.97 3206.13 3923.13L3206.13 3923.13Z" fill-rule="evenodd"/><path d="M3215.21 4150.94C3270.87 4142.46 3304 4193.32 3304 4232.73 3304.43 4274.7 3269.59 4306.06 3236.45 4310.3 3188.43 4316.65 3149.36 4278.93 3154.45 4241.21 3158.26 4213.24 3187.57 4155.17 3215.21 4150.94L3215.21 4150.94Z" fill="#7686C2" fill-rule="evenodd"/><path d="M3192.44 4142.35C3252.93 4132.57 3290 4177.65 3290 4220.62 3290.41 4266.57 3259.33 4289.11 3223.11 4293.37 3170.71 4300.61 3128.96 4244.03 3134.49 4202.76 3138.34 4172.12 3161.77 4147.03 3192.44 4142.35L3192.44 4142.35Z" fill="#4E8ABE" fill-rule="evenodd"/><path d="M3203.3 4142.12C3259.09 4133.16 3294 4179.64 3294 4219.31 3294 4261.52 3255.68 4287.55 3222.48 4291.38 3174.36 4297.77 3134.34 4253.86 3139.44 4215.89 3142.86 4187.74 3175.64 4146.38 3203.3 4142.12L3203.3 4142.12Z" fill="#5261AC" fill-rule="evenodd"/><path d="M3144.11 4168.65C3147.52 4164.84 3150.93 4161.03 3154.77 4158.07 3173.55 4142.42 3195.29 4136.9 3215.34 4138.18 3235.82 4139.44 3255.01 4147.49 3269.07 4159.76 3272.48 4162.72 3275.06 4165.26 3277.6 4168.65 3278.02 4169.07 3278.45 4169.5 3279.3 4170.34 3283.14 4175.43 3286.55 4180.5 3289.11 4185.58 3291.68 4190.66 3293.81 4195.75 3295.09 4200.82 3301.49 4226.64 3291.26 4251.61 3272.9 4270.66L3272.9 4270.66C3271.2 4272.35 3269.5 4274.04 3267.79 4275.73 3267.79 4276.16 3266.93 4276.59 3266.51 4277.01 3263.52 4279.54 3260.54 4281.66 3257.55 4283.36 3241.76 4293.5 3223.01 4296.47 3205.52 4294.36 3188.04 4292.24 3171.4 4284.62 3159.04 4273.62 3154.76 4269.39 3150.93 4264.73 3147.52 4260.06L3147.52 4260.06C3145.39 4256.27 3143.25 4252.44 3141.13 4248.22 3139.42 4244 3137.29 4239.77 3136.01 4235.12 3128.34 4212.25 3128.34 4186 3144.11 4168.65L3144.11 4168.65ZM3166.29 4158.07C3166.29 4158.07 3165.86 4157.64 3165.86 4157.22 3163.3 4158.91 3161.17 4160.6 3158.61 4162.72 3155.2 4165.69 3151.79 4168.65 3148.38 4172.46 3134.74 4188.11 3134.74 4211.82 3141.56 4233.4 3142.84 4237.64 3144.54 4241.86 3146.67 4245.67 3148.38 4249.47 3150.51 4253.29 3152.65 4256.67L3152.65 4257.1C3155.63 4261.34 3159.06 4265.55 3162.88 4268.94 3174.4 4279.51 3189.75 4286.29 3205.96 4288.41 3215.34 4289.68 3224.73 4289.26 3233.68 4287.13 3226.86 4276.13 3223.01 4263 3218.31 4254.12 3212.34 4241.85 3183.78 4184.71 3179.92 4177.09 3179.07 4175.4 3179.92 4173.71 3181.22 4173.28 3182.91 4172.43 3184.63 4173.28 3185.04 4174.97 3188.87 4180.05 3219.59 4239.3 3224.28 4252 3228.54 4261.32 3232.38 4274.01 3239.63 4285.44 3244.76 4283.75 3249.86 4281.2 3254.55 4278.24 3257.13 4276.55 3259.68 4274.86 3262.24 4272.74 3260.11 4252 3254.99 4232.54 3245.62 4212.22 3235.81 4191.05 3221.73 4169.47 3202.11 4144.08 3192.31 4144.92 3182.08 4147.89 3172.68 4152.96L3170.57 4154.23C3171.85 4155.49 3172.27 4156.77 3172.68 4158.04 3173.11 4158.46 3175.68 4162.7 3176.52 4163.54 3177.37 4164.39 3177.37 4166.5 3176.52 4167.35 3175.24 4168.62 3173.53 4168.62 3172.25 4167.35 3170.97 4166.08 3170.55 4164.81 3170.12 4163.97 3169.7 4163.14 3166.71 4158.91 3166.29 4158.07L3166.29 4158.07ZM3208.94 4143.68C3227.72 4167.79 3241.36 4189.38 3250.74 4209.7 3260.12 4229.16 3265.24 4247.79 3267.81 4267.68 3267.81 4267.27 3268.24 4267.27 3268.67 4266.84L3268.67 4266.84C3285.73 4248.64 3295.1 4225.78 3289.14 4202.49 3287.86 4197.41 3286.16 4192.76 3284.03 4188.1 3281.46 4183.45 3278.48 4178.79 3274.64 4174.14 3274.22 4173.28 3273.79 4172.86 3272.93 4172.02 3270.81 4169.48 3268.25 4166.95 3265.26 4164.4 3252.03 4152.56 3234.14 4144.94 3215.36 4144.09 3213.2 4143.68 3211.07 4143.68 3208.94 4143.68L3208.94 4143.68Z" fill-rule="evenodd"/><path d="M3150.29 4442 3264.02 4442C3277.21 4442 3290 4449.22 3290 4462.79 3288.72 4561.67 3288.29 4661.8 3289.14 4763.22 3289.14 4776.82 3283.17 4786.14 3269.97 4786.14L3145.59 4786.99C3131.96 4787.42 3126 4778.51 3126 4764.93L3126 4466.61C3126 4453.03 3137.08 4442 3150.29 4442L3150.29 4442Z" fill="#5261AC" fill-rule="evenodd"/><path d="M3150.27 4439 3264.01 4439 3264.01 4439 3264.87 4439 3264.87 4439C3271.67 4439.42 3278.48 4441.11 3283.62 4444.95 3289.15 4448.77 3292.57 4454.29 3293 4461.92L3293 4461.92 3293 4462.78 3293 4462.78C3292.14 4512.44 3291.71 4562.09 3291.71 4612.18 3291.71 4662.24 3291.71 4712.75 3292.14 4763.26 3292.14 4763.69 3292.14 4764.54 3292.14 4764.97L3292.14 4764.97C3291.71 4771.75 3290.01 4777.28 3287.02 4781.51 3283.2 4786.18 3278.5 4788.74 3271.67 4789.15 3270.82 4789.15 3270.39 4789.15 3269.98 4789.15L3145.58 4790C3144.72 4790 3144.3 4790 3143.88 4790 3137.07 4789.58 3131.95 4787.46 3128.53 4783.22 3125.11 4778.99 3123.43 4773.46 3123 4766.68 3123 4765.82 3123 4765.4 3123 4764.98L3123 4466.62 3123 4466.62 3123 4466.62C3123 4458.96 3125.99 4452.18 3131.09 4447.08 3136.19 4442.39 3143.02 4439 3150.27 4439L3150.27 4439 3150.27 4439 3150.27 4439ZM3148.12 4470.39C3148.12 4469.12 3149.42 4467.84 3151.11 4467.84 3152.82 4467.84 3154.1 4469.12 3154.1 4470.82L3153.67 4478.46 3153.67 4478.46C3152.82 4534.47 3153.67 4594.33 3154.1 4652.9 3154.95 4691.51 3155.38 4729.71 3155.38 4765.79 3155.38 4767.07 3154.1 4768.76 3152.39 4768.76 3150.7 4768.76 3149.42 4767.07 3149.42 4765.79 3149.42 4729.71 3148.99 4691.51 3148.55 4652.9 3147.69 4594.33 3146.84 4534.49 3148.12 4478.03L3148.12 4478.03 3148.12 4470.39 3148.12 4470.39ZM3174.12 4471.26C3174.12 4469.55 3175.82 4468.28 3177.1 4468.7 3178.8 4468.7 3180.07 4470.39 3179.66 4471.67L3179.66 4472.09C3179.24 4476.77 3178.8 4481.85 3178.38 4486.95 3176.25 4520.47 3176.68 4559.09 3177.96 4600.26 3177.96 4609.18 3178.38 4618.5 3178.81 4627.84 3180.09 4673.68 3181.38 4721.21 3179.67 4765.34 3179.67 4766.62 3178.39 4767.9 3176.7 4767.9 3174.99 4767.9 3173.71 4766.62 3173.71 4764.93 3175.42 4721.21 3174.14 4673.68 3172.84 4627.84 3171.13 4570.56 3169.42 4514.96 3174.12 4471.26L3174.12 4471.26 3174.12 4471.26ZM3202.22 4469.55C3202.22 4467.85 3203.5 4466.59 3205.21 4466.59 3206.91 4466.59 3208.2 4467.85 3208.2 4469.55 3207.34 4492.05 3206.91 4514.54 3206.91 4537.46 3206.49 4563.78 3206.49 4590.51 3206.91 4617.25 3206.91 4623.61 3206.91 4630.41 3206.91 4636.77 3207.34 4679.64 3208.62 4722.92 3210.32 4766.65 3210.32 4768.34 3209.04 4769.62 3207.34 4769.62 3205.63 4769.62 3204.35 4768.34 3204.35 4766.65 3202.65 4716.99 3201.38 4666.9 3200.94 4617.25 3200.51 4567.6 3200.96 4518.36 3202.22 4469.55L3202.22 4469.55ZM3230.35 4467.44C3230.35 4465.74 3231.63 4464.46 3233.34 4464.46 3235.04 4464.46 3236.32 4465.74 3236.32 4467.44L3236.32 4467.85C3234.62 4518.78 3235.9 4570.58 3237.18 4621.5 3238.46 4669.88 3239.74 4717.41 3238.46 4763.25 3238.46 4764.96 3236.76 4766.23 3235.48 4766.23 3233.77 4766.23 3232.49 4764.52 3232.49 4763.25 3233.77 4717.41 3232.49 4669.88 3231.21 4621.92 3229.93 4570.58 3228.64 4518.78 3230.35 4467.85L3230.35 4467.44 3230.35 4467.44ZM3258.46 4465.31C3258.46 4463.62 3259.74 4462.34 3261.44 4462.34 3263.15 4462.34 3264.43 4463.62 3264.43 4465.31 3264.01 4488.22 3263.57 4510.72 3263.15 4533.64 3263.15 4560.38 3263.15 4587.12 3263.15 4613.85 3263.15 4620.64 3263.15 4627 3263.15 4633.36 3264.01 4676.65 3264.86 4719.52 3266.56 4762.39 3266.56 4764.08 3265.28 4765.36 3263.57 4765.36 3261.87 4765.36 3260.59 4764.08 3260.59 4762.8 3258.88 4713.16 3257.6 4663.49 3257.18 4613.83 3256.75 4564.19 3257.18 4514.96 3258.46 4465.31L3258.46 4465.31ZM3264.01 4444.93 3264.01 4444.93 3150.27 4444.93 3150.27 4444.93 3150.27 4444.93C3144.29 4444.93 3139.17 4447.49 3135.35 4451.29 3131.52 4455.11 3128.95 4460.64 3128.95 4466.59L3128.95 4466.59 3128.95 4466.59 3128.95 4764.96C3128.95 4765.8 3128.95 4766.23 3128.95 4766.23L3128.95 4766.23C3128.95 4771.73 3130.23 4776.4 3132.79 4779.37 3135.35 4782.36 3139.17 4784.06 3143.87 4784.06 3144.29 4784.06 3145.15 4784.06 3145.57 4784.06L3269.96 4783.62C3269.96 4783.62 3270.82 4783.21 3271.24 4783.21 3275.93 4783.21 3279.76 4781.08 3282.32 4778.12 3284.88 4774.72 3286.16 4770.47 3286.16 4764.97 3286.16 4764.11 3286.16 4763.69 3286.16 4763.26 3285.73 4712.75 3285.73 4662.26 3285.73 4612.18 3286.16 4562.1 3286.59 4512.01 3287.01 4462.36L3287.01 4461.93C3287.01 4456.43 3284.45 4452.6 3280.2 4449.63 3276.36 4446.65 3270.39 4444.96 3264.86 4444.96L3264.01 4444.96 3264.01 4444.93Z" fill-rule="evenodd"/><path d="M1551.94 5058 1682 5058 1590.74 5234 1540 5234 1551.94 5058Z" fill="#413000" fill-rule="evenodd"/><path d="M1551.48 5056 1682.31 5056 1687 5056 1684.87 5060.26 1593.26 5235.3 1592.4 5237 1590.69 5237 1539.98 5237 1537 5237 1537 5233.59 1548.5 5058.56 1548.93 5056 1551.48 5056 1551.48 5056ZM1677.2 5060.24 1554.47 5060.24 1542.97 5231.03 1588.99 5231.03 1677.2 5060.24 1677.2 5060.24Z" fill-rule="evenodd"/><path d="M3251.35 5062 3121 5062 3211.31 5235 3262 5235 3251.35 5062Z" fill="#413000" fill-rule="evenodd"/><path d="M3250.98 5060 3121.1 5060 3116 5060 3118.55 5064.25 3208.54 5236.73 3209.4 5238 3211.1 5238 3261.61 5238 3265 5238 3264.58 5235.02 3253.96 5062.56 3253.96 5060 3250.98 5060 3250.98 5060ZM3125.77 5064.25 3248 5064.25 3258.63 5232.49 3212.78 5232.49 3125.77 5064.25 3125.77 5064.25Z" fill-rule="evenodd"/></g></svg>