<svg width="2150" height="2476" xmlns="http://www.w3.org/2000/svg" xmlns:xlink="http://www.w3.org/1999/xlink" xml:space="preserve" overflow="hidden"><g transform="translate(-246 -2594)"><path d="M246.499 2594.92 2395.5 2594.92 2395.5 5069.92 246.499 5069.92 246.499 2594.92Z" fill="#FFFFFF" fill-rule="evenodd"/><path d="M2296.46 4807.91 2304.46 4794.91C2302.94 4800.02 2300.14 4804.51 2296.46 4807.91L2296.46 4807.91Z" fill="#7886C2" fill-rule="evenodd"/><path d="M694.135 3587.64C903.364 3505.75 1485.67 3527.02 1706.7 3532.44 1927.73 3547.36 1964.96 3832.4 1969.02 4077.18 1974.47 4413.8 1935.9 4546.39 1708.96 4589.36 1446.62 4638.67 995.489 4612.9 698.649 4564.46 533.445 4537.77 488.962 4270.82 488.503 4015.2 487.628 3667.73 622.881 3615.69 694.135 3587.64L694.135 3587.64Z" stroke="#000000" stroke-width="6.27231" stroke-miterlimit="8" fill="#FFFFFF" fill-rule="evenodd"/></g></svg>